<?xml version="1.0" encoding="utf-8"?><svg width="4000px" height="2000px" xmlns="http://www.w3.org/2000/svg"><g data-state="-1"><text font-size="22" x="1973.507" y="1085.1" fill="#000">9</text></g><g data-state="-1"><text font-size="22" x="1968.773" y="1322.9" fill="#000">11</text></g><g data-state="-1"><text font-size="22" x="699.039" y="1010.45" fill="#000">6</text></g><g data-state="-1"><text font-size="22" x="805.554" y="1085" fill="#000">8</text></g><g data-state="-1"><text font-size="22" x="2238.32" y="1134.8" fill="#000">7</text></g><g data-state="-1"><text font-size="22" x="2413.586" y="1322.85" fill="#000">5</text></g><g data-state="-1"><text font-size="22" x="2461.351" y="1323.65" fill="#000">3</text></g><g data-state="-1"><text font-size="22" x="2631.617" y="1134.95" fill="#000">1</text></g><g data-state="-1"><text font-size="22" x="1907.789" y="977.95" fill="#000">13</text></g><g data-state="-1"><text font-size="22" x="1824.304" y="840" fill="#000">15</text></g><g data-state="-1"><text font-size="22" x="1315.82" y="723.3" fill="#000">30</text></g><g data-state="-1"><text font-size="22" x="996.086" y="965.35" fill="#000">22</text></g><g data-state="-1"><text font-size="22" x="1100.101" y="892.4" fill="#000">24</text></g><g data-state="-1"><text font-size="22" x="990.367" y="1009.45" fill="#000">16</text></g><g data-state="-1"><text font-size="22" x="1153.133" y="844" fill="#000">28</text></g><g data-state="-1"><text font-size="22" x="885.633" y="1086.5" fill="#000">14</text></g><g data-state="-1"><text font-size="22" x="922.148" y="1132.3" fill="#000">18</text></g><g data-state="-1"><text font-size="22" x="1096.164" y="1321.85" fill="#000">20</text></g><g data-state="-1"><text font-size="22" x="1136.43" y="1321.65" fill="#000">26</text></g><g data-state="-1"><text font-size="22" x="302.9454" y="769.7" fill="#000">38</text></g><g data-state="-1"><text font-size="22" x="724.461" y="1133" fill="#000">12</text></g><g data-state="-1"><text font-size="22" x="553.477" y="1322.05" fill="#000">10</text></g><g data-state="-1"><text font-size="22" x="203.2111" y="841.75" fill="#000">36</text></g><g data-state="-1"><text font-size="22" x="513.054" y="891.5" fill="#000">2</text></g><g data-state="-1"><text font-size="22" x="617.07" y="964.55" fill="#000">4</text></g><g data-state="-1"><polygon fill="rgba(0,0,0,0)" stroke="#000" stroke-width="2" points="215.0389,1068 228.3723,1058 228.3723,1064.667 255.0389,1064.667 255.0389,1071.333 228.3723,1071.333 228.3723,1078" /></g><g data-state="-1"><polygon fill="rgba(0,0,0,0)" stroke="#000" stroke-width="2" points="210.9935,1068.027 197.6602,1058.027 197.6602,1064.694 170.9935,1064.694 170.9935,1071.361 197.6602,1071.361 197.6602,1078.027" /></g><g data-state="-1"><rect x="192.0141" y="1086.805" width="44" height="14" fill="rgba(0,0,0,0)" stroke="#000" stroke-width="2" /></g><g data-state="-1"><polygon fill="rgba(0,0,0,0)" stroke="#000" stroke-width="2" points="213.1515,1418.033 226.4848,1408.033 226.4848,1414.7 253.1515,1414.7 253.1515,1421.367 226.4848,1421.367 226.4848,1428.033" /></g><g data-state="-1"><polygon fill="rgba(0,0,0,0)" stroke="#000" stroke-width="2" points="209.1061,1418.061 195.7727,1408.061 195.7727,1414.727 169.1061,1414.727 169.1061,1421.394 195.7727,1421.394 195.7727,1428.061" /></g><g data-state="-1"><rect x="190.1267" y="1383.202" width="44" height="14" fill="rgba(0,0,0,0)" stroke="#000" stroke-width="2" /></g><g data-state="-1"><rect x="314.9689" y="1052.233" width="44" height="14" fill="rgba(0,0,0,0)" stroke="#000" stroke-width="2" /><text font-size="22" x="288.5389" y="1021.833" fill="#000">Неиспр. 1Ч</text></g><g data-state="-1"><rect x="316.282" y="1451.131" width="44" height="14" fill="rgba(0,0,0,0)" stroke="#000" stroke-width="2" /><text font-size="22" x="289.8523" y="1420.731" fill="#000">Неиспр. 2Ч</text></g><g data-state="-1"><polygon fill="rgba(0,0,0,0)" stroke="#000" stroke-width="2" points="3013.474,1059.697 3026.808,1049.697 3026.808,1056.364 3053.474,1056.364 3053.474,1063.03 3026.808,1063.03 3026.808,1069.697" /></g><g data-state="-1"><polygon fill="rgba(0,0,0,0)" stroke="#000" stroke-width="2" points="3009.429,1059.724 2996.095,1049.724 2996.095,1056.391 2969.429,1056.391 2969.429,1063.058 2996.095,1063.058 2996.095,1069.724" /></g><g data-state="-1"><rect x="2990.449" y="1078.502" width="44" height="14" fill="rgba(0,0,0,0)" stroke="#000" stroke-width="2" /></g><g data-state="-1"><polygon fill="rgba(0,0,0,0)" stroke="#000" stroke-width="2" points="3014.684,1420.091 3001.351,1410.091 3001.351,1416.758 2974.684,1416.758 2974.684,1423.424 3001.351,1423.424 3001.351,1430.091" /></g><g data-state="-1"><rect x="2995.705" y="1385.232" width="44" height="14" fill="rgba(0,0,0,0)" stroke="#000" stroke-width="2" /></g><g data-state="-1"><rect x="2834.18" y="1041.641" width="44" height="14" fill="rgba(0,0,0,0)" stroke="#000" stroke-width="2" /><text font-size="22" x="2807.75" y="1011.241" fill="#000">Неиспр. 1Н</text></g><g data-state="-1"><rect x="2839.32" y="1408.94" width="44" height="14" fill="rgba(0,0,0,0)" stroke="#000" stroke-width="2" /><text font-size="22" x="2812.89" y="1378.54" fill="#000">Неиспр. 2Н</text></g><g data-state="-1"><polygon fill="rgba(0,0,0,0)" stroke="#000" stroke-width="2" points="3021.624,1420.573 3034.957,1410.573 3034.957,1417.24 3061.624,1417.24 3061.624,1423.906 3034.957,1423.906 3034.957,1430.573" /></g><g data-state="-1"><rect x="969.917" y="376.273" width="44" height="14" fill="rgba(0,0,0,0)" stroke="#000" stroke-width="2" /><text font-size="22" x="960.987" y="345.873" fill="#000">Земля</text></g><g data-state="-1"><rect x="1867.896" y="458.902" width="44" height="14" fill="rgba(0,0,0,0)" stroke="#000" stroke-width="2" /><text font-size="22" x="1872.411" y="427.502" fill="#000">ГСВ</text></g><g data-state="-1"><rect x="1070.028" y="375.806" width="44" height="14" fill="rgba(0,0,0,0)" stroke="#000" stroke-width="2" /><text font-size="22" x="1044.098" y="345.406" fill="#000">Предохр.</text></g><g data-state="-1"><rect x="1489.821" y="376.651" width="44" height="14" fill="rgba(0,0,0,0)" stroke="#000" stroke-width="2" /><text font-size="22" x="1473.78" y="345.251" fill="#000">Свобод.</text></g><g data-state="-1"><rect x="1490.996" y="316.1381" width="44" height="14" fill="rgba(0,0,0,0)" stroke="#000" stroke-width="2" /><text font-size="22" x="1477.495" y="286.1667" fill="#000">Отмена</text></g><g data-state="-1"><rect x="1163.524" y="458.457" width="44" height="14" fill="rgba(0,0,0,0)" stroke="#000" stroke-width="2" /><text font-size="22" x="1163.094" y="425.557" fill="#000">ЩВП</text></g><g data-state="-1"><rect x="1070.806" y="460.173" width="44" height="14" fill="rgba(0,0,0,0)" stroke="#000" stroke-width="2" /><text font-size="22" x="1044.876" y="430.773" fill="#000">Иск.разм.</text></g><g data-state="-1"><rect x="871.306" y="461.64" width="44" height="14" fill="rgba(0,0,0,0)" stroke="#000" stroke-width="2" /><text font-size="22" x="887.59" y="428.74" fill="#000">Т</text></g><g data-state="-1"><rect x="1168.707" y="378.345" width="44" height="14" fill="rgba(0,0,0,0)" stroke="#000" stroke-width="2" /><text font-size="22" x="1168.11" y="347.945" fill="#000">КРБ</text></g><g data-state="-1"><rect x="2166.846" y="459.679" width="44" height="14" fill="rgba(0,0,0,0)" stroke="#000" stroke-width="2" /><text font-size="22" x="2157.63" y="428.517" fill="#000">Взрез</text></g><g data-state="-1"><rect x="2065.012" y="460.24" width="44" height="14" fill="rgba(0,0,0,0)" stroke="#000" stroke-width="2" /><text font-size="22" x="2062.499" y="431.09" fill="#000">АМП</text></g><g data-state="-1"><rect x="2069.846" y="378.895" width="44" height="14" fill="rgba(0,0,0,0)" stroke="#000" stroke-width="2" /><text font-size="22" x="2067.749" y="348.495" fill="#000">День</text></g><g data-state="-1"><rect x="2170.346" y="378.262" width="44" height="14" fill="rgba(0,0,0,0)" stroke="#000" stroke-width="2" /><text font-size="22" x="2161.638" y="347.862" fill="#000">Ночь</text></g><g data-state="-1"><rect x="2270.512" y="378.573" width="44" height="14" fill="rgba(0,0,0,0)" stroke="#000" stroke-width="2" /><text font-size="22" x="2220.527" y="348.173" fill="#000">Сниж. напр.</text></g><g data-state="-1"><rect x="1769.707" y="378.129" width="44" height="14" fill="rgba(0,0,0,0)" stroke="#000" stroke-width="2" /><text font-size="22" x="1777.086" y="351.371" fill="#000">1Ф</text></g><g data-state="-1"><rect x="1770.707" y="458.551" width="44" height="14" fill="rgba(0,0,0,0)" stroke="#000" stroke-width="2" /><text font-size="22" x="1773.586" y="430.246" fill="#000">2Ф</text></g><g data-state="-1"><rect x="1388.846" y="377.873" width="44" height="14" fill="rgba(0,0,0,0)" stroke="#000" stroke-width="2" /><text font-size="22" x="1369.749" y="347.473" fill="#000">Поездн.</text></g><g data-state="-1"><rect x="1590.568" y="376.406" width="44" height="14" fill="rgba(0,0,0,0)" stroke="#000" stroke-width="2" /><text font-size="22" x="1569.305" y="346.006" fill="#000">Маневр.</text></g><g data-state="-1"><rect x="870.234" y="376.062" width="44" height="14" fill="rgba(0,0,0,0)" stroke="#000" stroke-width="2" /><text font-size="22" x="846.018" y="343.412" fill="#000">САУТ_1Ч</text></g><g data-state="-1"><rect x="968.601" y="463.04" width="44" height="14" fill="rgba(0,0,0,0)" stroke="#000" stroke-width="2" /><text font-size="22" x="970.243" y="428.354" fill="#000">ДГА</text></g><g data-state="-1"><rect x="1869.735" y="378.44" width="44" height="14" fill="rgba(0,0,0,0)" stroke="#000" stroke-width="2" /><text font-size="22" x="1867.138" y="353.873" fill="#000">ВМП</text></g><g data-state="-1"><rect x="1969.624" y="379.673" width="44" height="14" fill="rgba(0,0,0,0)" stroke="#000" stroke-width="2" /><text font-size="22" x="1968.694" y="349.273" fill="#000">ГПС</text></g><g data-state="-1"><rect x="1970.068" y="459.84" width="44" height="14" fill="rgba(0,0,0,0)" stroke="#000" stroke-width="2" /><text font-size="22" x="1980.09" y="429.44" fill="#000">ВУ</text></g><g data-state="-1"><rect x="759.411" y="375.133" width="44" height="14" fill="rgba(0,0,0,0)" stroke="#000" stroke-width="2" /><text font-size="22" x="740.981" y="344.304" fill="#000">САУТ_2Ч</text></g><g data-state="-1"><rect x="1390.346" y="459.368" width="44" height="14" fill="rgba(0,0,0,0)" stroke="#000" stroke-width="2" /><text font-size="22" x="1391.083" y="428.968" fill="#000">УМН</text></g><g data-state="-1"><rect x="1591.203" y="459.625" width="44" height="14" fill="rgba(0,0,0,0)" stroke="#000" stroke-width="2" /><text font-size="22" x="1591.94" y="429.225" fill="#000">УМЧ</text></g><g data-state="-1"><rect x="2366.54" y="378.579" width="44" height="14" fill="rgba(0,0,0,0)" stroke="#000" stroke-width="2" /><text font-size="22" x="2353.706" y="348.179" fill="#000">САУТ_1Н</text></g><g data-state="-1" /><g data-state="-1"><rect x="1494.405" y="1706.567" width="44" height="14" fill="rgba(0,0,0,0)" stroke="#000" stroke-width="2" /><text font-size="22" x="1483.975" y="1676.167" fill="#000">Макет</text></g><g data-state="-1" /><g data-state="-1" /><g data-state="-1" /><g data-state="-1" /><g data-state="-1" /><g data-state="-1" /><g data-state="-1" /><g data-state="-1" /><g data-state="-1" /><g data-state="-1"><rect x="51.5" y="572.346" width="44" height="14" fill="rgba(0,0,0,0)" stroke="#000" stroke-width="2" /><text font-size="22" x="47.5927" y="542.196" fill="#000">1РРМ</text></g><g data-state="-1"><rect x="51.4821" y="630.535" width="44" height="14" fill="rgba(0,0,0,0)" stroke="#000" stroke-width="2" /><text font-size="22" x="44.9612" y="599.816" fill="#000">10РРМ</text></g><g data-state="-1"><rect x="134.6474" y="572.014" width="44" height="14" fill="rgba(0,0,0,0)" stroke="#000" stroke-width="2" /><text font-size="22" x="130.7402" y="541.864" fill="#000">2РРМ</text></g><g data-state="-1"><rect x="135.6295" y="631.203" width="44" height="14" fill="rgba(0,0,0,0)" stroke="#000" stroke-width="2" /><text font-size="22" x="129.1086" y="600.485" fill="#000">11РРМ</text></g><g data-state="-1"><rect x="215.5159" y="572.247" width="44" height="14" fill="rgba(0,0,0,0)" stroke="#000" stroke-width="2" /><text font-size="22" x="211.6086" y="542.097" fill="#000">3РРМ</text></g><g data-state="-1"><rect x="215.498" y="631.436" width="44" height="14" fill="rgba(0,0,0,0)" stroke="#000" stroke-width="2" /><text font-size="22" x="208.9771" y="600.718" fill="#000">12РРМ</text></g><g data-state="-1"><rect x="296.6633" y="571.913" width="44" height="14" fill="rgba(0,0,0,0)" stroke="#000" stroke-width="2" /><text font-size="22" x="292.756" y="541.763" fill="#000">4РРМ</text></g><g data-state="-1"><rect x="297.6454" y="632.103" width="44" height="14" fill="rgba(0,0,0,0)" stroke="#000" stroke-width="2" /><text font-size="22" x="291.1245" y="601.384" fill="#000">13РРМ</text></g><g data-state="-1"><rect x="375.811" y="570.582" width="44" height="14" fill="rgba(0,0,0,0)" stroke="#000" stroke-width="2" /><text font-size="22" x="371.903" y="540.432" fill="#000">5РРМ</text></g><g data-state="-1"><rect x="375.793" y="630.771" width="44" height="14" fill="rgba(0,0,0,0)" stroke="#000" stroke-width="2" /><text font-size="22" x="369.272" y="600.053" fill="#000">14РРМ</text></g><g data-state="-1"><rect x="455.679" y="570.815" width="44" height="14" fill="rgba(0,0,0,0)" stroke="#000" stroke-width="2" /><text font-size="22" x="451.772" y="540.665" fill="#000">6РРМ</text></g><g data-state="-1"><rect x="456.661" y="632.004" width="44" height="14" fill="rgba(0,0,0,0)" stroke="#000" stroke-width="2" /><text font-size="22" x="450.14" y="601.286" fill="#000">15РРМ</text></g><g data-state="-1"><rect x="535.493" y="570.815" width="44" height="14" fill="rgba(0,0,0,0)" stroke="#000" stroke-width="2" /><text font-size="22" x="531.586" y="540.665" fill="#000">7РРМ</text></g><g data-state="-1"><rect x="536.475" y="633.004" width="44" height="14" fill="rgba(0,0,0,0)" stroke="#000" stroke-width="2" /><text font-size="22" x="529.954" y="602.286" fill="#000">16РРМ</text></g><g data-state="-1"><rect x="615.641" y="570.483" width="44" height="14" fill="rgba(0,0,0,0)" stroke="#000" stroke-width="2" /><text font-size="22" x="611.733" y="540.333" fill="#000">8РРМ</text></g><g data-state="-1"><rect x="615.623" y="632.672" width="44" height="14" fill="rgba(0,0,0,0)" stroke="#000" stroke-width="2" /><text font-size="22" x="609.102" y="601.954" fill="#000">17РРМ</text></g><g data-state="-1"><rect x="695.938" y="570.716" width="44" height="14" fill="rgba(0,0,0,0)" stroke="#000" stroke-width="2" /><text font-size="22" x="692.03" y="540.566" fill="#000">9РРМ</text></g><g data-state="-1"><rect x="2365.52" y="457.669" width="44" height="14" fill="rgba(0,0,0,0)" stroke="#000" stroke-width="2" /><text font-size="22" x="2351.256" y="425.84" fill="#000">САУТ_2Н</text></g><g data-state="-1"><rect x="2309.593" y="601.273" width="44" height="14" fill="rgba(0,0,0,0)" stroke="#000" stroke-width="2" /><text font-size="22" x="2288.542" y="571.123" fill="#000">Выдерж.</text></g><g data-state="-1"><rect x="2393.169" y="599.942" width="44" height="14" fill="rgba(0,0,0,0)" stroke="#000" stroke-width="2" /><text font-size="22" x="2379.261" y="572.649" fill="#000">Оповещ.</text></g><g data-state="-1"><rect x="2480.18" y="600.174" width="44" height="14" fill="rgba(0,0,0,0)" stroke="#000" stroke-width="2" /><text font-size="22" x="2476.273" y="570.024" fill="#000">Разреш.</text></g><g data-state="-1"><rect x="2422.665" y="1219.02" width="44" height="14" fill="rgba(0,0,0,0)" stroke="#000" stroke-width="2" /><text font-size="22" x="2417.329" y="1191.727" fill="#000">3/5ВК</text></g><g data-state="-1"><rect x="2355.694" y="720.548" width="44" height="14" fill="rgba(0,0,0,0)" stroke="#000" stroke-width="2" /><text font-size="22" x="2360.546" y="689.207" fill="#000">ВО</text></g><g data-state="-1"><rect x="2437.988" y="720.76" width="44" height="14" fill="rgba(0,0,0,0)" stroke="#000" stroke-width="2" /><text font-size="22" x="2444.081" y="690.371" fill="#000">ЦО</text></g><g data-state="-1"><rect x="652.315" y="460.397" width="44" height="14" fill="rgba(0,0,0,0)" stroke="#000" stroke-width="2" /><text font-size="22" x="642.885" y="430.354" fill="#000">От_стр</text></g><g data-state="-1"><rect x="761.611" y="461.797" width="44" height="14" fill="rgba(0,0,0,0)" stroke="#000" stroke-width="2" /><text font-size="22" x="750.395" y="429.968" fill="#000">Вк_стр</text></g><g data-state="-1"><rect x="2270.839" y="461.876" width="44" height="14" fill="rgba(0,0,0,0)" stroke="#000" stroke-width="2" /><text font-size="22" x="2273.56" y="428.619" fill="#000">ВКЛ</text></g><g data-state="-1"><rect x="650.555" y="374.083" width="44" height="14" fill="rgba(0,0,0,0)" stroke="#000" stroke-width="2" /><text font-size="22" x="641.125" y="344.04" fill="#000">АСН1П</text></g><g data-state="-1"><rect x="520.605" y="1533.285" width="44" height="14" fill="rgba(0,0,0,0)" stroke="#000" stroke-width="2" /><text font-size="22" x="516.697" y="1503.135" fill="#000">3СОГ</text></g><g data-state="-1"><rect x="603.752" y="1532.953" width="44" height="14" fill="rgba(0,0,0,0)" stroke="#000" stroke-width="2" /><text font-size="22" x="599.845" y="1502.803" fill="#000">4СОГ</text></g><g data-state="-1"><rect x="684.62" y="1533.186" width="44" height="14" fill="rgba(0,0,0,0)" stroke="#000" stroke-width="2" /><text font-size="22" x="680.713" y="1503.036" fill="#000">5СОГ</text></g><g data-state="-1"><rect x="765.768" y="1532.853" width="44" height="14" fill="rgba(0,0,0,0)" stroke="#000" stroke-width="2" /><text font-size="22" x="761.861" y="1502.703" fill="#000">6СОГ</text></g><g data-state="-1"><rect x="544.65" y="374.483" width="44" height="14" fill="rgba(0,0,0,0)" stroke="#000" stroke-width="2" /><text font-size="22" x="552.362" y="347.297" fill="#000">ЗС</text></g><g data-state="-1"><rect x="439.65" y="374.168" width="44" height="14" fill="rgba(0,0,0,0)" stroke="#000" stroke-width="2" /><text font-size="22" x="441.362" y="349.983" fill="#000">РВВ</text></g><g data-state="-1"><rect x="543.65" y="461.521" width="44" height="14" fill="rgba(0,0,0,0)" stroke="#000" stroke-width="2" /><text font-size="22" x="545.362" y="435.335" fill="#000">СОУ</text></g><g data-state="-1"><rect x="1442" y="1737.3" width="44" height="14" fill="rgba(0,0,0,0)" stroke="#000" stroke-width="2" /></g><g data-state="-1"><rect x="1550" y="1737.3" width="44" height="14" fill="rgba(0,0,0,0)" stroke="#000" stroke-width="2" /></g><g data-state="-1" /><g data-state="-1" /><g data-state="-1" /><g data-state="-1" /><g data-state="-1" /><g data-state="-1" /><g data-state="-1" /><g data-state="-1" /><g data-state="-1" /><g data-state="-1" /><g data-state="-1" /><g data-state="-1" /><g data-state="-1" /><g data-state="-1" /><g data-state="-1" /><g data-state="-1" /><g data-state="-1" /><g data-state="-1" /><g data-state="-1" /><g data-state="-1" /><g data-state="-1" /><g data-state="-1" /><g data-state="-1" /><g data-state="-1" /><g data-state="-1" /><g data-state="-1" /><g data-state="-1" /><g data-state="-1" /><g data-state="-1" /><g data-state="-1" /><g data-state="-1" /><g data-state="-1" /><g data-state="-1" /><g data-state="-1" /><g data-state="-1" /><g data-state="-1" /><g data-state="-1" /><g data-state="-1" /></svg>