<?xml version="1.0" encoding="utf-8"?><svg width="4000px" height="2000px" xmlns="http://www.w3.org/2000/svg"><g data-state="-1"><rect x="586.121" y="362.94" width="44" height="14" fill="rgba(0,0,0,0)" stroke="#000" stroke-width="2" /><text font-size="22" x="577.191" y="332.54" fill="#000">Земля</text></g><g data-state="-1"><rect x="686.232" y="362.473" width="44" height="14" fill="rgba(0,0,0,0)" stroke="#000" stroke-width="2" /><text font-size="22" x="660.302" y="332.073" fill="#000">Предохр.</text></g><g data-state="-1"><rect x="1023.2" y="302.8048" width="44" height="14" fill="rgba(0,0,0,0)" stroke="#000" stroke-width="2" /><text font-size="22" x="1009.699" y="272.8333" fill="#000">Отмена</text></g><g data-state="-1"><rect x="386.871" y="362.695" width="44" height="14" fill="rgba(0,0,0,0)" stroke="#000" stroke-width="2" /><text font-size="22" x="386.441" y="329.795" fill="#000">РКП</text></g><g data-state="-1"><rect x="687.01" y="444.84" width="44" height="14" fill="rgba(0,0,0,0)" stroke="#000" stroke-width="2" /><text font-size="22" x="661.08" y="415.44" fill="#000">Иск.разм.</text></g><g data-state="-1"><rect x="482.51" y="363.306" width="44" height="14" fill="rgba(0,0,0,0)" stroke="#000" stroke-width="2" /><text font-size="22" x="465.58" y="332.906" fill="#000">Батарея</text></g><g data-state="-1"><rect x="1721.495" y="364.406" width="44" height="14" fill="rgba(0,0,0,0)" stroke="#000" stroke-width="2" /><text font-size="22" x="1702.946" y="332.102" fill="#000">Зам.стр.</text></g><g data-state="-1"><rect x="1723.05" y="446.345" width="44" height="14" fill="rgba(0,0,0,0)" stroke="#000" stroke-width="2" /><text font-size="22" x="1713.834" y="415.183" fill="#000">Взрез</text></g><g data-state="-1"><rect x="1521.217" y="446.906" width="44" height="14" fill="rgba(0,0,0,0)" stroke="#000" stroke-width="2" /><text font-size="22" x="1517.275" y="417.756" fill="#000">НЭО</text></g><g data-state="-1"><rect x="1421.772" y="445.134" width="44" height="14" fill="rgba(0,0,0,0)" stroke="#000" stroke-width="2" /><text font-size="22" x="1422.009" y="416.901" fill="#000">НКИ</text></g><g data-state="-1"><rect x="1422.05" y="365.562" width="44" height="14" fill="rgba(0,0,0,0)" stroke="#000" stroke-width="2" /><text font-size="22" x="1419.953" y="335.162" fill="#000">День</text></g><g data-state="-1"><rect x="1522.55" y="364.929" width="44" height="14" fill="rgba(0,0,0,0)" stroke="#000" stroke-width="2" /><text font-size="22" x="1513.842" y="334.529" fill="#000">Ночь</text></g><g data-state="-1"><rect x="1622.717" y="365.24" width="44" height="14" fill="rgba(0,0,0,0)" stroke="#000" stroke-width="2" /><text font-size="22" x="1572.731" y="334.84" fill="#000">Сниж. напр.</text></g><g data-state="-1"><rect x="1322.911" y="364.795" width="44" height="14" fill="rgba(0,0,0,0)" stroke="#000" stroke-width="2" /><text font-size="22" x="1330.291" y="338.038" fill="#000">1Ф</text></g><g data-state="-1"><rect x="1323.911" y="445.217" width="44" height="14" fill="rgba(0,0,0,0)" stroke="#000" stroke-width="2" /><text font-size="22" x="1326.791" y="416.913" fill="#000">2Ф</text></g><g data-state="-1"><rect x="921.05" y="364.54" width="44" height="14" fill="rgba(0,0,0,0)" stroke="#000" stroke-width="2" /><text font-size="22" x="926.954" y="334.14" fill="#000">УМ</text></g><g data-state="-1"><rect x="1122.772" y="363.073" width="44" height="14" fill="rgba(0,0,0,0)" stroke="#000" stroke-width="2" /><text font-size="22" x="1131.509" y="332.673" fill="#000">УП</text></g><g data-state="-1"><rect x="482.01" y="445.729" width="44" height="14" fill="rgba(0,0,0,0)" stroke="#000" stroke-width="2" /><text font-size="22" x="479.08" y="413.079" fill="#000">ЧЭО</text></g><g data-state="-1"><rect x="584.805" y="444.706" width="44" height="14" fill="rgba(0,0,0,0)" stroke="#000" stroke-width="2" /><text font-size="22" x="581.875" y="414.306" fill="#000">ЧКИ</text></g><g data-state="-1"><rect x="1621.606" y="447.306" width="44" height="14" fill="rgba(0,0,0,0)" stroke="#000" stroke-width="2" /><text font-size="22" x="1623.398" y="418.156" fill="#000">САУТ</text></g><g data-state="-1"><rect x="1222.939" y="446.773" width="44" height="14" fill="rgba(0,0,0,0)" stroke="#000" stroke-width="2" /><text font-size="22" x="1222.009" y="419.706" fill="#000">ОФ</text></g><g data-state="-1"><rect x="801.851" y="364.984" width="44" height="14" fill="rgba(0,0,0,0)" stroke="#000" stroke-width="2" /><text font-size="22" x="800.421" y="334.584" fill="#000">УНМ</text></g><g data-state="-1"><rect x="801.406" y="448.108" width="44" height="15" fill="rgba(0,0,0,0)" stroke="#000" stroke-width="2" /><text font-size="22" x="800.976" y="412.895" fill="#000">КМГ</text></g><g data-state="-1"><rect x="632.917" y="838.929" width="26.25" height="25" rx="10" fill="rgba(0,0,0,0)" stroke="#000" stroke-width="2" /><text font-size="22" x="640.487" y="838.779" fill="#000">2</text></g><g data-state="-1"><rect x="724.124" y="911.226" width="26.25" height="25" rx="10" fill="rgba(0,0,0,0)" stroke="#000" stroke-width="2" /><text font-size="22" x="731.694" y="911.076" fill="#000">4</text></g><g data-state="-1"><rect x="768.028" y="791.636" width="26.25" height="25" rx="10" fill="rgba(0,0,0,0)" stroke="#000" stroke-width="2" /><text font-size="22" x="775.598" y="791.486" fill="#000">6</text></g><g data-state="-1"><rect x="749.235" y="951.077" width="26.25" height="25" rx="10" fill="rgba(0,0,0,0)" stroke="#000" stroke-width="2" /><text font-size="22" x="756.805" y="950.927" fill="#000">8</text></g><g data-state="-1"><rect x="1323.706" y="794.222" width="26.25" height="25" rx="10" fill="rgba(0,0,0,0)" stroke="#000" stroke-width="2" /><text font-size="22" x="1331.276" y="794.072" fill="#000">7</text></g><g data-state="-1"><rect x="1333.073" y="908.393" width="26.25" height="25" rx="10" fill="rgba(0,0,0,0)" stroke="#000" stroke-width="2" /><text font-size="22" x="1340.643" y="908.243" fill="#000">3</text></g><g data-state="-1"><rect x="1426.492" y="833.679" width="26.25" height="25" rx="10" fill="rgba(0,0,0,0)" stroke="#000" stroke-width="2" /><text font-size="22" x="1434.062" y="833.529" fill="#000">1</text></g><g data-state="-1"><rect x="1314.43" y="949.279" width="26.25" height="25" rx="10" fill="rgba(0,0,0,0)" stroke="#000" stroke-width="2" /><text font-size="22" x="1322" y="949.129" fill="#000">5</text></g><g data-state="-1"><polygon fill="rgba(0,0,0,0)" stroke="#000" stroke-width="2" points="272.3582,772.914 285.6915,762.914 285.6915,769.581 312.3582,769.581 312.3582,776.247 285.6915,776.247 285.6915,782.914" /></g><g data-state="-1"><polygon fill="rgba(0,0,0,0)" stroke="#000" stroke-width="2" points="268.3127,772.941 254.9794,762.941 254.9794,769.608 228.3127,769.608 228.3127,776.275 254.9794,776.275 254.9794,782.941" /></g><g data-state="-1"><rect x="249.3333" y="791.719" width="44" height="14" fill="rgba(0,0,0,0)" stroke="#000" stroke-width="2" /></g><g data-state="-1"><polygon fill="rgba(0,0,0,0)" stroke="#000" stroke-width="2" points="1790.495,943.332 1803.828,933.332 1803.828,939.999 1830.495,939.999 1830.495,946.665 1803.828,946.665 1803.828,953.332" /></g><g data-state="-1"><polygon fill="rgba(0,0,0,0)" stroke="#000" stroke-width="2" points="1879.449,943.359 1866.116,933.359 1866.116,940.026 1839.449,940.026 1839.449,946.693 1866.116,946.693 1866.116,953.359" /></g><g data-state="-1"><polygon fill="rgba(0,0,0,0)" stroke="#000" stroke-width="2" points="277.1374,1001.947 290.4707,991.947 290.4707,998.614 317.137,998.614 317.137,1005.281 290.4707,1005.281 290.4707,1011.947" /></g><g data-state="-1"><polygon fill="rgba(0,0,0,0)" stroke="#000" stroke-width="2" points="273.0919,1001.975 259.7586,991.975 259.7586,998.641 233.0919,998.641 233.0919,1005.308 259.7586,1005.308 259.7586,1011.975" /></g><g data-state="-1"><rect x="254.1126" y="967.116" width="44" height="14" fill="rgba(0,0,0,0)" stroke="#000" stroke-width="2" /></g><g data-state="-1"><polygon fill="rgba(0,0,0,0)" stroke="#000" stroke-width="2" points="282.3647,942.638 295.698,932.638 295.698,939.305 322.365,939.305 322.365,945.972 295.698,945.972 295.698,952.638" /></g><g data-state="-1"><polygon fill="rgba(0,0,0,0)" stroke="#000" stroke-width="2" points="271.3192,942.666 257.9859,932.666 257.9859,939.332 231.3192,939.332 231.3192,945.999 257.9859,945.999 257.9859,952.666" /></g><g data-state="-1"><polygon fill="rgba(0,0,0,0)" stroke="#000" stroke-width="2" points="1829.746,775.209 1843.08,765.209 1843.08,771.875 1869.746,771.875 1869.746,778.542 1843.08,778.542 1843.08,785.209" /></g><g data-state="-1"><polygon fill="rgba(0,0,0,0)" stroke="#000" stroke-width="2" points="1825.701,775.236 1812.368,765.236 1812.368,771.903 1785.701,771.903 1785.701,778.569 1812.368,778.569 1812.368,785.236" /></g><g data-state="-1"><rect x="1806.722" y="794.013" width="44" height="14" fill="rgba(0,0,0,0)" stroke="#000" stroke-width="2" /></g><g data-state="-1"><polygon fill="rgba(0,0,0,0)" stroke="#000" stroke-width="2" points="1828.883,827.627 1842.216,817.627 1842.216,824.294 1868.883,824.294 1868.883,830.96 1842.216,830.96 1842.216,837.627" /></g><g data-state="-1"><polygon fill="rgba(0,0,0,0)" stroke="#000" stroke-width="2" points="1824.837,827.654 1811.504,817.654 1811.504,824.321 1784.837,824.321 1784.837,830.987 1811.504,830.987 1811.504,837.654" /></g><g data-state="-1"><polygon fill="rgba(0,0,0,0)" stroke="#000" stroke-width="2" points="1839.526,993.242 1852.859,983.242 1852.859,989.909 1879.526,989.909 1879.526,996.575 1852.859,996.575 1852.859,1003.242" /></g><g data-state="-1"><polygon fill="rgba(0,0,0,0)" stroke="#000" stroke-width="2" points="1835.48,993.269 1822.147,983.269 1822.147,989.936 1795.48,989.936 1795.48,996.603 1822.147,996.603 1822.147,1003.269" /></g><g data-state="-1"><rect x="1811.501" y="960.41" width="44" height="14" fill="rgba(0,0,0,0)" stroke="#000" stroke-width="2" /></g><g data-state="-1"><polygon fill="rgba(0,0,0,0)" stroke="#000" stroke-width="2" points="225.7529,824.933 239.0862,814.933 239.0862,821.6 265.7529,821.6 265.7529,828.266 239.0862,828.266 239.0862,834.933" /></g><g data-state="-1"><polygon fill="rgba(0,0,0,0)" stroke="#000" stroke-width="2" points="313.7074,826.46 300.3741,816.46 300.3741,823.127 273.7074,823.127 273.7074,829.794 300.3741,829.794 300.3741,836.46" /></g><g data-state="-1"><rect x="392.288" y="747.147" width="44" height="14" fill="rgba(0,0,0,0)" stroke="#000" stroke-width="2" /><text font-size="22" x="365.858" y="716.747" fill="#000">Неиспр. ЧД</text></g><g data-state="-1"><rect x="380.268" y="1031.045" width="44" height="14" fill="rgba(0,0,0,0)" stroke="#000" stroke-width="2" /><text font-size="22" x="353.838" y="1000.645" fill="#000">Неиспр. Ч</text></g><g data-state="-1"><rect x="1667.343" y="747.442" width="44" height="14" fill="rgba(0,0,0,0)" stroke="#000" stroke-width="2" /><text font-size="22" x="1640.913" y="717.042" fill="#000">Неиспр. Н</text></g><g data-state="-1"><rect x="1653.259" y="993.118" width="44" height="14" fill="rgba(0,0,0,0)" stroke="#000" stroke-width="2" /><text font-size="22" x="1626.829" y="962.718" fill="#000">Неиспр. НД</text></g><g data-state="-1"><rect x="1747.689" y="1160.409" width="44" height="14" fill="rgba(0,0,0,0)" stroke="#000" stroke-width="2" /><text font-size="22" x="1726.259" y="1130.009" fill="#000">НУКСПС</text></g><g data-state="-1" /><g data-state="-1"><rect x="269.1122" y="1136.317" width="44" height="14.35718" fill="rgba(0,0,0,0)" stroke="#000" stroke-width="2" /><text font-size="22" x="248.6465" y="1105.489" fill="#000">ЧУКСПС</text></g><g data-state="-1" /><g data-state="-1"><rect x="1025.763" y="1209.122" width="44" height="14" fill="rgba(0,0,0,0)" stroke="#000" stroke-width="2" /><text font-size="22" x="1015.333" y="1178.722" fill="#000">Макет</text></g><g data-state="-1"><rect x="230.6667" y="1166.053" width="44" height="14" fill="rgba(0,0,0,0)" stroke="#000" stroke-width="2" /></g><g data-state="-1"><rect x="310.6625" y="1165.189" width="44" height="14" fill="rgba(0,0,0,0)" stroke="#000" stroke-width="2" /></g><g data-state="-1"><rect x="1707.662" y="1186.717" width="44" height="14" fill="rgba(0,0,0,0)" stroke="#000" stroke-width="2" /></g><g data-state="-1"><rect x="1787.658" y="1185.853" width="44" height="14" fill="rgba(0,0,0,0)" stroke="#000" stroke-width="2" /></g><g data-state="-1"><rect x="341.788" y="625.963" width="44" height="14" fill="rgba(0,0,0,0)" stroke="#000" stroke-width="2" /><text font-size="22" x="342.83" y="599.146" fill="#000">закр</text></g><g data-state="-1"><rect x="433.143" y="625.603" width="44" height="14" fill="rgba(0,0,0,0)" stroke="#000" stroke-width="2" /><text font-size="22" x="421.236" y="597.675" fill="#000">неиспр</text></g><g data-state="-1"><rect x="1223.851" y="364.217" width="44" height="14" fill="rgba(0,0,0,0)" stroke="#000" stroke-width="2" /><text font-size="22" x="1222.421" y="333.817" fill="#000">УЧМ</text></g></svg>