<?xml version="1.0" encoding="utf-8"?><svg width="4000px" height="2000px" xmlns="http://www.w3.org/2000/svg"><g data-state="-1"><rect x="1962.187" y="1081.5" width="32.2657" height="31.25" rx="10" fill="rgba(0,0,0,0)" stroke="#000" stroke-width="2" /><text font-size="22" x="1973.507" y="1085.1" fill="#000">9</text></g><g data-state="-1"><rect x="1963.703" y="1319.3" width="32.2656" height="31.25" rx="10" fill="rgba(0,0,0,0)" stroke="#000" stroke-width="2" /><text font-size="22" x="1968.773" y="1322.9" fill="#000">11</text></g><g data-state="-1"><rect x="687.719" y="1006.85" width="32.2657" height="31.25" rx="10" fill="rgba(0,0,0,0)" stroke="#000" stroke-width="2" /><text font-size="22" x="699.039" y="1010.45" fill="#000">6</text></g><g data-state="-1"><rect x="794.234" y="1081.4" width="32.2657" height="31.25" rx="10" fill="rgba(0,0,0,0)" stroke="#000" stroke-width="2" /><text font-size="22" x="805.554" y="1085" fill="#000">8</text></g><g data-state="-1"><rect x="2227" y="1131.2" width="32.2656" height="31.25" rx="10" fill="rgba(0,0,0,0)" stroke="#000" stroke-width="2" /><text font-size="22" x="2238.32" y="1134.8" fill="#000">7</text></g><g data-state="-1"><rect x="2402.266" y="1319.25" width="32.2656" height="31.25" rx="10" fill="rgba(0,0,0,0)" stroke="#000" stroke-width="2" /><text font-size="22" x="2413.586" y="1322.85" fill="#000">5</text></g><g data-state="-1"><rect x="2450.031" y="1320.05" width="32.2659" height="31.25" rx="10" fill="rgba(0,0,0,0)" stroke="#000" stroke-width="2" /><text font-size="22" x="2461.351" y="1323.65" fill="#000">3</text></g><g data-state="-1"><rect x="2620.297" y="1131.35" width="32.2656" height="31.25" rx="10" fill="rgba(0,0,0,0)" stroke="#000" stroke-width="2" /><text font-size="22" x="2631.617" y="1134.95" fill="#000">1</text></g><g data-state="-1"><rect x="1902.719" y="974.35" width="32.2657" height="31.25" rx="10" fill="rgba(0,0,0,0)" stroke="#000" stroke-width="2" /><text font-size="22" x="1907.789" y="977.95" fill="#000">13</text></g><g data-state="-1"><rect x="1819.234" y="836.4" width="32.2656" height="31.25" rx="10" fill="rgba(0,0,0,0)" stroke="#000" stroke-width="2" /><text font-size="22" x="1824.304" y="840" fill="#000">15</text></g><g data-state="-1"><rect x="1310.75" y="719.7" width="32.2656" height="31.25" rx="10" fill="rgba(0,0,0,0)" stroke="#000" stroke-width="2" /><text font-size="22" x="1315.82" y="723.3" fill="#000">30</text></g><g data-state="-1"><rect x="991.016" y="961.75" width="32.2657" height="31.25" rx="10" fill="rgba(0,0,0,0)" stroke="#000" stroke-width="2" /><text font-size="22" x="996.086" y="965.35" fill="#000">22</text></g><g data-state="-1"><rect x="1095.031" y="888.8" width="32.2656" height="31.25" rx="10" fill="rgba(0,0,0,0)" stroke="#000" stroke-width="2" /><text font-size="22" x="1100.101" y="892.4" fill="#000">24</text></g><g data-state="-1"><rect x="985.297" y="1005.85" width="32.2657" height="31.25" rx="10" fill="rgba(0,0,0,0)" stroke="#000" stroke-width="2" /><text font-size="22" x="990.367" y="1009.45" fill="#000">16</text></g><g data-state="-1"><rect x="1148.063" y="840.4" width="32.2656" height="31.25" rx="10" fill="rgba(0,0,0,0)" stroke="#000" stroke-width="2" /><text font-size="22" x="1153.133" y="844" fill="#000">28</text></g><g data-state="-1"><rect x="880.563" y="1082.9" width="32.2656" height="31.25" rx="10" fill="rgba(0,0,0,0)" stroke="#000" stroke-width="2" /><text font-size="22" x="885.633" y="1086.5" fill="#000">14</text></g><g data-state="-1"><rect x="917.078" y="1128.7" width="32.2657" height="31.25" rx="10" fill="rgba(0,0,0,0)" stroke="#000" stroke-width="2" /><text font-size="22" x="922.148" y="1132.3" fill="#000">18</text></g><g data-state="-1"><rect x="1091.094" y="1318.25" width="32.2656" height="31.25" rx="10" fill="rgba(0,0,0,0)" stroke="#000" stroke-width="2" /><text font-size="22" x="1096.164" y="1321.85" fill="#000">20</text></g><g data-state="-1"><rect x="1131.36" y="1318.05" width="32.2657" height="31.25" rx="10" fill="rgba(0,0,0,0)" stroke="#000" stroke-width="2" /><text font-size="22" x="1136.43" y="1321.65" fill="#000">26</text></g><g data-state="-1"><rect x="297.8754" y="766.1" width="32.2657" height="31.25" rx="10" fill="rgba(0,0,0,0)" stroke="#000" stroke-width="2" /><text font-size="22" x="302.9454" y="769.7" fill="#000">38</text></g><g data-state="-1"><rect x="719.391" y="1129.4" width="32.2657" height="31.25" rx="10" fill="rgba(0,0,0,0)" stroke="#000" stroke-width="2" /><text font-size="22" x="724.461" y="1133" fill="#000">12</text></g><g data-state="-1"><rect x="548.407" y="1318.45" width="32.2657" height="31.25" rx="10" fill="rgba(0,0,0,0)" stroke="#000" stroke-width="2" /><text font-size="22" x="553.477" y="1322.05" fill="#000">10</text></g><g data-state="-1"><rect x="198.1411" y="838.15" width="32.2657" height="31.25" rx="10" fill="rgba(0,0,0,0)" stroke="#000" stroke-width="2" /><text font-size="22" x="203.2111" y="841.75" fill="#000">36</text></g><g data-state="-1"><rect x="501.734" y="887.9" width="32.2657" height="31.25" rx="10" fill="rgba(0,0,0,0)" stroke="#000" stroke-width="2" /><text font-size="22" x="513.054" y="891.5" fill="#000">2</text></g><g data-state="-1"><rect x="605.75" y="960.95" width="32.2657" height="31.25" rx="10" fill="rgba(0,0,0,0)" stroke="#000" stroke-width="2" /><text font-size="22" x="617.07" y="964.55" fill="#000">4</text></g><g data-state="-1"><polygon fill="rgba(0,0,0,0)" stroke="#000" stroke-width="2" points="215.0389,1068 228.3723,1058 228.3723,1064.667 255.0389,1064.667 255.0389,1071.333 228.3723,1071.333 228.3723,1078" /></g><g data-state="-1"><polygon fill="rgba(0,0,0,0)" stroke="#000" stroke-width="2" points="210.9935,1068.027 197.6602,1058.027 197.6602,1064.694 170.9935,1064.694 170.9935,1071.361 197.6602,1071.361 197.6602,1078.027" /></g><g data-state="-1"><rect x="192.0141" y="1086.805" width="44" height="14" fill="rgba(0,0,0,0)" stroke="#000" stroke-width="2" /></g><g data-state="-1"><polygon fill="rgba(0,0,0,0)" stroke="#000" stroke-width="2" points="213.1515,1418.033 226.4848,1408.033 226.4848,1414.7 253.1515,1414.7 253.1515,1421.367 226.4848,1421.367 226.4848,1428.033" /></g><g data-state="-1"><polygon fill="rgba(0,0,0,0)" stroke="#000" stroke-width="2" points="209.1061,1418.061 195.7727,1408.061 195.7727,1414.727 169.1061,1414.727 169.1061,1421.394 195.7727,1421.394 195.7727,1428.061" /></g><g data-state="-1"><rect x="190.1267" y="1383.202" width="44" height="14" fill="rgba(0,0,0,0)" stroke="#000" stroke-width="2" /></g><g data-state="-1"><rect x="314.9689" y="1052.233" width="44" height="14" fill="rgba(0,0,0,0)" stroke="#000" stroke-width="2" /><text font-size="22" x="288.5389" y="1021.833" fill="#000">Неиспр. 1Ч</text></g><g data-state="-1"><rect x="316.282" y="1451.131" width="44" height="14" fill="rgba(0,0,0,0)" stroke="#000" stroke-width="2" /><text font-size="22" x="289.8523" y="1420.731" fill="#000">Неиспр. 2Ч</text></g><g data-state="-1"><polygon fill="rgba(0,0,0,0)" stroke="#000" stroke-width="2" points="3013.474,1059.697 3026.808,1049.697 3026.808,1056.364 3053.474,1056.364 3053.474,1063.03 3026.808,1063.03 3026.808,1069.697" /></g><g data-state="-1"><polygon fill="rgba(0,0,0,0)" stroke="#000" stroke-width="2" points="3009.429,1059.724 2996.095,1049.724 2996.095,1056.391 2969.429,1056.391 2969.429,1063.058 2996.095,1063.058 2996.095,1069.724" /></g><g data-state="-1"><rect x="2990.449" y="1078.502" width="44" height="14" fill="rgba(0,0,0,0)" stroke="#000" stroke-width="2" /></g><g data-state="-1"><polygon fill="rgba(0,0,0,0)" stroke="#000" stroke-width="2" points="3014.684,1420.091 3001.351,1410.091 3001.351,1416.758 2974.684,1416.758 2974.684,1423.424 3001.351,1423.424 3001.351,1430.091" /></g><g data-state="-1"><rect x="2995.705" y="1385.232" width="44" height="14" fill="rgba(0,0,0,0)" stroke="#000" stroke-width="2" /></g><g data-state="-1"><rect x="2834.18" y="1041.641" width="44" height="14" fill="rgba(0,0,0,0)" stroke="#000" stroke-width="2" /><text font-size="22" x="2807.75" y="1011.241" fill="#000">Неиспр. 1Н</text></g><g data-state="-1"><rect x="2839.32" y="1408.94" width="44" height="14" fill="rgba(0,0,0,0)" stroke="#000" stroke-width="2" /><text font-size="22" x="2812.89" y="1378.54" fill="#000">Неиспр. 2Н</text></g><g data-state="-1"><polygon fill="rgba(0,0,0,0)" stroke="#000" stroke-width="2" points="3021.624,1420.573 3034.957,1410.573 3034.957,1417.24 3061.624,1417.24 3061.624,1423.906 3034.957,1423.906 3034.957,1430.573" /></g><g data-state="-1"><rect x="969.917" y="376.273" width="44" height="14" fill="rgba(0,0,0,0)" stroke="#000" stroke-width="2" /><text font-size="22" x="960.987" y="345.873" fill="#000">Земля</text></g><g data-state="-1"><rect x="1867.896" y="458.902" width="44" height="14" fill="rgba(0,0,0,0)" stroke="#000" stroke-width="2" /><text font-size="22" x="1872.411" y="427.502" fill="#000">ГСВ</text></g><g data-state="-1"><rect x="1070.028" y="375.806" width="44" height="14" fill="rgba(0,0,0,0)" stroke="#000" stroke-width="2" /><text font-size="22" x="1044.098" y="345.406" fill="#000">Предохр.</text></g><g data-state="-1"><rect x="1489.821" y="376.651" width="44" height="14" fill="rgba(0,0,0,0)" stroke="#000" stroke-width="2" /><text font-size="22" x="1473.78" y="345.251" fill="#000">Свобод.</text></g><g data-state="-1"><rect x="1490.996" y="316.1381" width="44" height="14" fill="rgba(0,0,0,0)" stroke="#000" stroke-width="2" /><text font-size="22" x="1477.495" y="286.1667" fill="#000">Отмена</text></g><g data-state="-1"><rect x="1163.524" y="458.457" width="44" height="14" fill="rgba(0,0,0,0)" stroke="#000" stroke-width="2" /><text font-size="22" x="1163.094" y="425.557" fill="#000">ЩВП</text></g><g data-state="-1"><rect x="1070.806" y="460.173" width="44" height="14" fill="rgba(0,0,0,0)" stroke="#000" stroke-width="2" /><text font-size="22" x="1044.876" y="430.773" fill="#000">Иск.разм.</text></g><g data-state="-1"><rect x="871.306" y="461.64" width="44" height="14" fill="rgba(0,0,0,0)" stroke="#000" stroke-width="2" /><text font-size="22" x="887.59" y="428.74" fill="#000">Т</text></g><g data-state="-1"><rect x="1168.707" y="378.345" width="44" height="14" fill="rgba(0,0,0,0)" stroke="#000" stroke-width="2" /><text font-size="22" x="1168.11" y="347.945" fill="#000">КРБ</text></g><g data-state="-1"><rect x="2166.846" y="459.679" width="44" height="14" fill="rgba(0,0,0,0)" stroke="#000" stroke-width="2" /><text font-size="22" x="2157.63" y="428.517" fill="#000">Взрез</text></g><g data-state="-1"><rect x="2065.012" y="460.24" width="44" height="14" fill="rgba(0,0,0,0)" stroke="#000" stroke-width="2" /><text font-size="22" x="2062.499" y="431.09" fill="#000">АМП</text></g><g data-state="-1"><rect x="2069.846" y="378.895" width="44" height="14" fill="rgba(0,0,0,0)" stroke="#000" stroke-width="2" /><text font-size="22" x="2067.749" y="348.495" fill="#000">День</text></g><g data-state="-1"><rect x="2170.346" y="378.262" width="44" height="14" fill="rgba(0,0,0,0)" stroke="#000" stroke-width="2" /><text font-size="22" x="2161.638" y="347.862" fill="#000">Ночь</text></g><g data-state="-1"><rect x="2270.512" y="378.573" width="44" height="14" fill="rgba(0,0,0,0)" stroke="#000" stroke-width="2" /><text font-size="22" x="2220.527" y="348.173" fill="#000">Сниж. напр.</text></g><g data-state="-1"><rect x="1769.707" y="378.129" width="44" height="14" fill="rgba(0,0,0,0)" stroke="#000" stroke-width="2" /><text font-size="22" x="1777.086" y="351.371" fill="#000">1Ф</text></g><g data-state="-1"><rect x="1770.707" y="458.551" width="44" height="14" fill="rgba(0,0,0,0)" stroke="#000" stroke-width="2" /><text font-size="22" x="1773.586" y="430.246" fill="#000">2Ф</text></g><g data-state="-1"><rect x="1388.846" y="377.873" width="44" height="14" fill="rgba(0,0,0,0)" stroke="#000" stroke-width="2" /><text font-size="22" x="1369.749" y="347.473" fill="#000">Поездн.</text></g><g data-state="-1"><rect x="1590.568" y="376.406" width="44" height="14" fill="rgba(0,0,0,0)" stroke="#000" stroke-width="2" /><text font-size="22" x="1569.305" y="346.006" fill="#000">Маневр.</text></g><g data-state="-1"><rect x="870.234" y="376.062" width="44" height="14" fill="rgba(0,0,0,0)" stroke="#000" stroke-width="2" /><text font-size="22" x="846.018" y="343.412" fill="#000">САУТ_1Ч</text></g><g data-state="-1"><rect x="968.601" y="463.04" width="44" height="14" fill="rgba(0,0,0,0)" stroke="#000" stroke-width="2" /><text font-size="22" x="970.243" y="428.354" fill="#000">ДГА</text></g><g data-state="-1"><rect x="1869.735" y="378.44" width="44" height="14" fill="rgba(0,0,0,0)" stroke="#000" stroke-width="2" /><text font-size="22" x="1867.138" y="353.873" fill="#000">ВМП</text></g><g data-state="-1"><rect x="1969.624" y="379.673" width="44" height="14" fill="rgba(0,0,0,0)" stroke="#000" stroke-width="2" /><text font-size="22" x="1968.694" y="349.273" fill="#000">ГПС</text></g><g data-state="-1"><rect x="1970.068" y="459.84" width="44" height="14" fill="rgba(0,0,0,0)" stroke="#000" stroke-width="2" /><text font-size="22" x="1980.09" y="429.44" fill="#000">ВУ</text></g><g data-state="-1"><rect x="759.411" y="375.133" width="44" height="14" fill="rgba(0,0,0,0)" stroke="#000" stroke-width="2" /><text font-size="22" x="740.981" y="344.304" fill="#000">САУТ_2Ч</text></g><g data-state="-1"><rect x="1390.346" y="459.368" width="44" height="14" fill="rgba(0,0,0,0)" stroke="#000" stroke-width="2" /><text font-size="22" x="1391.083" y="428.968" fill="#000">УМН</text></g><g data-state="-1"><rect x="1591.203" y="459.625" width="44" height="14" fill="rgba(0,0,0,0)" stroke="#000" stroke-width="2" /><text font-size="22" x="1591.94" y="429.225" fill="#000">УМЧ</text></g><g data-state="-1"><rect x="2366.54" y="378.579" width="44" height="14" fill="rgba(0,0,0,0)" stroke="#000" stroke-width="2" /><text font-size="22" x="2353.706" y="348.179" fill="#000">САУТ_1Н</text></g><g data-state="-1" /><g data-state="-1"><rect x="1494.405" y="1706.567" width="44" height="14" fill="rgba(0,0,0,0)" stroke="#000" stroke-width="2" /><text font-size="22" x="1483.975" y="1676.167" fill="#000">Макет</text></g><g data-state="-1"><polygon fill="rgba(0,0,0,0)" stroke="#000" stroke-width="2" points="3012.624,1119.953 2997.654,1108.453 2997.654,1116.12 2982.684,1116.12 2982.684,1108.453 2967.714,1119.953 2982.684,1131.453 2982.684,1123.786 2997.654,1123.786 2997.654,1131.453" /></g><g data-state="-1"><polygon fill="rgba(0,0,0,0)" stroke="#000" stroke-width="2" points="3056.39,1120.253 3042.753,1108.753 3042.753,1116.42 3029.117,1116.42 3029.117,1108.753 3015.481,1120.253 3029.117,1131.753 3029.117,1124.086 3042.753,1124.086 3042.753,1131.753" /></g><g data-state="-1"><polygon fill="rgba(0,0,0,0)" stroke="#000" stroke-width="2" points="3016.961,1360.967 3001.991,1349.467 3001.991,1357.134 2987.022,1357.134 2987.022,1349.467 2972.052,1360.967 2987.022,1372.467 2987.022,1364.801 3001.991,1364.801 3001.991,1372.467" /></g><g data-state="-1"><polygon fill="rgba(0,0,0,0)" stroke="#000" stroke-width="2" points="3060.727,1361.267 3047.091,1349.767 3047.091,1357.434 3033.455,1357.434 3033.455,1349.767 3019.818,1361.267 3033.455,1372.767 3033.455,1365.101 3047.091,1365.101 3047.091,1372.767" /></g><g data-state="-1"><polygon fill="rgba(0,0,0,0)" stroke="#000" stroke-width="2" points="214.2272,1123.403 199.2575,1111.903 199.2575,1119.569 184.2878,1119.569 184.2878,1111.903 169.3182,1123.403 184.2878,1134.903 184.2878,1127.236 199.2575,1127.236 199.2575,1134.903" /></g><g data-state="-1"><polygon fill="rgba(0,0,0,0)" stroke="#000" stroke-width="2" points="257.9934,1125.036 244.3571,1113.536 244.3571,1121.203 230.7207,1121.203 230.7207,1113.536 217.0844,1125.036 230.7207,1136.536 230.7207,1128.869 244.3571,1128.869 244.3571,1136.536" /></g><g data-state="-1"><polygon fill="rgba(0,0,0,0)" stroke="#000" stroke-width="2" points="212.8506,1358.131 197.8809,1346.631 197.8809,1354.298 182.9112,1354.298 182.9112,1346.631 167.9415,1358.131 182.9112,1369.631 182.9112,1361.964 197.8809,1361.964 197.8809,1369.631" /></g><g data-state="-1"><polygon fill="rgba(0,0,0,0)" stroke="#000" stroke-width="2" points="256.6168,1358.431 242.9804,1346.931 242.9804,1354.598 229.3441,1354.598 229.3441,1346.931 215.7077,1358.431 229.3441,1369.931 229.3441,1362.265 242.9804,1362.265 242.9804,1369.931" /></g><g data-state="-1" /><g data-state="-1"><rect x="51.5" y="572.346" width="44" height="14" fill="rgba(0,0,0,0)" stroke="#000" stroke-width="2" /><text font-size="22" x="47.5927" y="542.196" fill="#000">1РРМ</text></g><g data-state="-1"><rect x="51.4821" y="630.535" width="44" height="14" fill="rgba(0,0,0,0)" stroke="#000" stroke-width="2" /><text font-size="22" x="44.9612" y="599.816" fill="#000">10РРМ</text></g><g data-state="-1"><rect x="134.6474" y="572.014" width="44" height="14" fill="rgba(0,0,0,0)" stroke="#000" stroke-width="2" /><text font-size="22" x="130.7402" y="541.864" fill="#000">2РРМ</text></g><g data-state="-1"><rect x="135.6295" y="631.203" width="44" height="14" fill="rgba(0,0,0,0)" stroke="#000" stroke-width="2" /><text font-size="22" x="129.1086" y="600.485" fill="#000">11РРМ</text></g><g data-state="-1"><rect x="215.5159" y="572.247" width="44" height="14" fill="rgba(0,0,0,0)" stroke="#000" stroke-width="2" /><text font-size="22" x="211.6086" y="542.097" fill="#000">3РРМ</text></g><g data-state="-1"><rect x="215.498" y="631.436" width="44" height="14" fill="rgba(0,0,0,0)" stroke="#000" stroke-width="2" /><text font-size="22" x="208.9771" y="600.718" fill="#000">12РРМ</text></g><g data-state="-1"><rect x="296.6633" y="571.913" width="44" height="14" fill="rgba(0,0,0,0)" stroke="#000" stroke-width="2" /><text font-size="22" x="292.756" y="541.763" fill="#000">4РРМ</text></g><g data-state="-1"><rect x="297.6454" y="632.103" width="44" height="14" fill="rgba(0,0,0,0)" stroke="#000" stroke-width="2" /><text font-size="22" x="291.1245" y="601.384" fill="#000">13РРМ</text></g><g data-state="-1"><rect x="375.811" y="570.582" width="44" height="14" fill="rgba(0,0,0,0)" stroke="#000" stroke-width="2" /><text font-size="22" x="371.903" y="540.432" fill="#000">5РРМ</text></g><g data-state="-1"><rect x="375.793" y="630.771" width="44" height="14" fill="rgba(0,0,0,0)" stroke="#000" stroke-width="2" /><text font-size="22" x="369.272" y="600.053" fill="#000">14РРМ</text></g><g data-state="-1"><rect x="455.679" y="570.815" width="44" height="14" fill="rgba(0,0,0,0)" stroke="#000" stroke-width="2" /><text font-size="22" x="451.772" y="540.665" fill="#000">6РРМ</text></g><g data-state="-1"><rect x="456.661" y="632.004" width="44" height="14" fill="rgba(0,0,0,0)" stroke="#000" stroke-width="2" /><text font-size="22" x="450.14" y="601.286" fill="#000">15РРМ</text></g><g data-state="-1"><rect x="535.493" y="570.815" width="44" height="14" fill="rgba(0,0,0,0)" stroke="#000" stroke-width="2" /><text font-size="22" x="531.586" y="540.665" fill="#000">7РРМ</text></g><g data-state="-1"><rect x="536.475" y="633.004" width="44" height="14" fill="rgba(0,0,0,0)" stroke="#000" stroke-width="2" /><text font-size="22" x="529.954" y="602.286" fill="#000">16РРМ</text></g><g data-state="-1"><rect x="615.641" y="570.483" width="44" height="14" fill="rgba(0,0,0,0)" stroke="#000" stroke-width="2" /><text font-size="22" x="611.733" y="540.333" fill="#000">8РРМ</text></g><g data-state="-1"><rect x="615.623" y="632.672" width="44" height="14" fill="rgba(0,0,0,0)" stroke="#000" stroke-width="2" /><text font-size="22" x="609.102" y="601.954" fill="#000">17РРМ</text></g><g data-state="-1"><rect x="695.938" y="570.716" width="44" height="14" fill="rgba(0,0,0,0)" stroke="#000" stroke-width="2" /><text font-size="22" x="692.03" y="540.566" fill="#000">9РРМ</text></g><g data-state="-1"><rect x="2365.52" y="457.669" width="44" height="14" fill="rgba(0,0,0,0)" stroke="#000" stroke-width="2" /><text font-size="22" x="2351.256" y="425.84" fill="#000">САУТ_2Н</text></g><g data-state="-1"><rect x="2309.593" y="601.273" width="44" height="14" fill="rgba(0,0,0,0)" stroke="#000" stroke-width="2" /><text font-size="22" x="2288.542" y="571.123" fill="#000">Выдерж.</text></g><g data-state="-1"><rect x="2393.169" y="599.942" width="44" height="14" fill="rgba(0,0,0,0)" stroke="#000" stroke-width="2" /><text font-size="22" x="2379.261" y="572.649" fill="#000">Оповещ.</text></g><g data-state="-1"><rect x="2480.18" y="600.174" width="44" height="14" fill="rgba(0,0,0,0)" stroke="#000" stroke-width="2" /><text font-size="22" x="2476.273" y="570.024" fill="#000">Разреш.</text></g><g data-state="-1"><rect x="2422.665" y="1219.02" width="44" height="14" fill="rgba(0,0,0,0)" stroke="#000" stroke-width="2" /><text font-size="22" x="2417.329" y="1191.727" fill="#000">3/5ВК</text></g><g data-state="-1"><rect x="2355.694" y="720.548" width="44" height="14" fill="rgba(0,0,0,0)" stroke="#000" stroke-width="2" /><text font-size="22" x="2360.546" y="689.207" fill="#000">ВО</text></g><g data-state="-1"><rect x="2437.988" y="720.76" width="44" height="14" fill="rgba(0,0,0,0)" stroke="#000" stroke-width="2" /><text font-size="22" x="2444.081" y="690.371" fill="#000">ЦО</text></g><g data-state="-1"><rect x="652.315" y="460.397" width="44" height="14" fill="rgba(0,0,0,0)" stroke="#000" stroke-width="2" /><text font-size="22" x="642.885" y="430.354" fill="#000">От_стр</text></g><g data-state="-1"><rect x="761.611" y="461.797" width="44" height="14" fill="rgba(0,0,0,0)" stroke="#000" stroke-width="2" /><text font-size="22" x="750.395" y="429.968" fill="#000">Вк_стр</text></g><g data-state="-1"><rect x="2270.839" y="461.876" width="44" height="14" fill="rgba(0,0,0,0)" stroke="#000" stroke-width="2" /><text font-size="22" x="2273.56" y="428.619" fill="#000">ВКЛ</text></g><g data-state="-1"><rect x="650.555" y="374.083" width="44" height="14" fill="rgba(0,0,0,0)" stroke="#000" stroke-width="2" /><text font-size="22" x="641.125" y="344.04" fill="#000">АСН1П</text></g><g data-state="-1"><rect x="520.605" y="1533.285" width="44" height="14" fill="rgba(0,0,0,0)" stroke="#000" stroke-width="2" /><text font-size="22" x="516.697" y="1503.135" fill="#000">3СОГ</text></g><g data-state="-1"><rect x="603.752" y="1532.953" width="44" height="14" fill="rgba(0,0,0,0)" stroke="#000" stroke-width="2" /><text font-size="22" x="599.845" y="1502.803" fill="#000">4СОГ</text></g><g data-state="-1"><rect x="684.62" y="1533.186" width="44" height="14" fill="rgba(0,0,0,0)" stroke="#000" stroke-width="2" /><text font-size="22" x="680.713" y="1503.036" fill="#000">5СОГ</text></g><g data-state="-1"><rect x="765.768" y="1532.853" width="44" height="14" fill="rgba(0,0,0,0)" stroke="#000" stroke-width="2" /><text font-size="22" x="761.861" y="1502.703" fill="#000">6СОГ</text></g><g data-state="-1"><rect x="544.65" y="374.483" width="44" height="14" fill="rgba(0,0,0,0)" stroke="#000" stroke-width="2" /><text font-size="22" x="552.362" y="347.297" fill="#000">ЗС</text></g><g data-state="-1"><rect x="439.65" y="374.168" width="44" height="14" fill="rgba(0,0,0,0)" stroke="#000" stroke-width="2" /><text font-size="22" x="441.362" y="349.983" fill="#000">РВВ</text></g><g data-state="-1"><rect x="543.65" y="461.521" width="44" height="14" fill="rgba(0,0,0,0)" stroke="#000" stroke-width="2" /><text font-size="22" x="545.362" y="435.335" fill="#000">СОУ</text></g><g data-state="-1"><rect x="1442" y="1737.3" width="44" height="14" fill="rgba(0,0,0,0)" stroke="#000" stroke-width="2" /></g><g data-state="-1"><rect x="1550" y="1737.3" width="44" height="14" fill="rgba(0,0,0,0)" stroke="#000" stroke-width="2" /></g><g data-state="-1"><rect x="470.495" y="871.709" width="12.22699" height="10.90735" rx="10" fill="rgba(0,0,0,0)" stroke="#000" stroke-width="2" /></g><g data-state="-1"><rect x="348.167" y="756.383" width="12.22699" height="10.90729" rx="10" fill="rgba(0,0,0,0)" stroke="#000" stroke-width="2" /></g><g data-state="-1"><rect x="302.1436" y="871.841" width="12.22696" height="10.90729" rx="10" fill="rgba(0,0,0,0)" stroke="#000" stroke-width="2" /></g><g data-state="-1"><rect x="168.6206" y="872.298" width="12.22697" height="10.90729" rx="10" fill="rgba(0,0,0,0)" stroke="#000" stroke-width="2" /></g><g data-state="-1"><rect x="658.098" y="873.505" width="12.22699" height="10.90729" rx="10" fill="rgba(0,0,0,0)" stroke="#000" stroke-width="2" /></g><g data-state="-1"><rect x="657.825" y="995.713" width="12.22699" height="10.90735" rx="10" fill="rgba(0,0,0,0)" stroke="#000" stroke-width="2" /></g><g data-state="-1"><rect x="2197.468" y="1115.587" width="12.22705" height="10.90735" rx="10" fill="rgba(0,0,0,0)" stroke="#000" stroke-width="2" /></g><g data-state="-1"><rect x="977.779" y="874.127" width="12.22699" height="10.90735" rx="10" fill="rgba(0,0,0,0)" stroke="#000" stroke-width="2" /></g><g data-state="-1"><rect x="774.005" y="994.085" width="12.22699" height="10.90735" rx="10" fill="rgba(0,0,0,0)" stroke="#000" stroke-width="2" /></g><g data-state="-1"><rect x="916.232" y="993.792" width="12.22699" height="10.90735" rx="10" fill="rgba(0,0,0,0)" stroke="#000" stroke-width="2" /></g><g data-state="-1"><rect x="1297.529" y="754.877" width="12.22693" height="10.90735" rx="10" fill="rgba(0,0,0,0)" stroke="#000" stroke-width="2" /></g><g data-state="-1"><rect x="846.255" y="1115.835" width="12.22699" height="10.90735" rx="10" fill="rgba(0,0,0,0)" stroke="#000" stroke-width="2" /></g><g data-state="-1"><rect x="309.9825" y="1115.042" width="12.22699" height="10.90735" rx="10" fill="rgba(0,0,0,0)" stroke="#000" stroke-width="2" /></g><g data-state="-1"><rect x="530.209" y="1115.499" width="12.22699" height="10.90735" rx="10" fill="rgba(0,0,0,0)" stroke="#000" stroke-width="2" /></g><g data-state="-1"><rect x="1118.279" y="995.377" width="12.22693" height="10.90735" rx="10" fill="rgba(0,0,0,0)" stroke="#000" stroke-width="2" /></g><g data-state="-1"><rect x="1462.505" y="756.085" width="12.22693" height="10.90735" rx="10" fill="rgba(0,0,0,0)" stroke="#000" stroke-width="2" /></g><g data-state="-1"><rect x="1461.232" y="637.542" width="12.22705" height="10.90735" rx="10" fill="rgba(0,0,0,0)" stroke="#000" stroke-width="2" /></g><g data-state="-1"><rect x="1298.959" y="872.999" width="12.22693" height="10.90735" rx="10" fill="rgba(0,0,0,0)" stroke="#000" stroke-width="2" /></g><g data-state="-1"><rect x="1699.529" y="755.377" width="12.22693" height="10.90735" rx="10" fill="rgba(0,0,0,0)" stroke="#000" stroke-width="2" /></g><g data-state="-1"><rect x="1281.755" y="1353.335" width="12.22693" height="10.90735" rx="10" fill="rgba(0,0,0,0)" stroke="#000" stroke-width="2" /></g><g data-state="-1"><rect x="1280.482" y="1236.542" width="12.22705" height="10.90735" rx="10" fill="rgba(0,0,0,0)" stroke="#000" stroke-width="2" /></g><g data-state="-1"><rect x="1120.209" y="1115.499" width="12.22693" height="10.90735" rx="10" fill="rgba(0,0,0,0)" stroke="#000" stroke-width="2" /></g><g data-state="-1"><rect x="1825.779" y="1235.377" width="12.22693" height="10.90735" rx="10" fill="rgba(0,0,0,0)" stroke="#000" stroke-width="2" /></g><g data-state="-1"><rect x="1823.505" y="1117.085" width="12.22693" height="10.90735" rx="10" fill="rgba(0,0,0,0)" stroke="#000" stroke-width="2" /></g><g data-state="-1"><rect x="1766.482" y="993.542" width="12.22705" height="10.90735" rx="10" fill="rgba(0,0,0,0)" stroke="#000" stroke-width="2" /></g><g data-state="-1"><rect x="1698.959" y="871.749" width="12.22693" height="10.90735" rx="10" fill="rgba(0,0,0,0)" stroke="#000" stroke-width="2" /></g><g data-state="-1"><rect x="2037.029" y="1354.127" width="12.22705" height="10.90735" rx="10" fill="rgba(0,0,0,0)" stroke="#000" stroke-width="2" /></g><g data-state="-1"><rect x="2037.255" y="1114.585" width="12.22693" height="10.90735" rx="10" fill="rgba(0,0,0,0)" stroke="#000" stroke-width="2" /></g><g data-state="-1"><rect x="1828.732" y="1352.542" width="12.22705" height="10.90735" rx="10" fill="rgba(0,0,0,0)" stroke="#000" stroke-width="2" /></g><g data-state="-1"><rect x="2321.445" y="1351.544" width="12.22681" height="10.90735" rx="10" fill="rgba(0,0,0,0)" stroke="#000" stroke-width="2" /></g><g data-state="-1"><rect x="2905.195" y="1114.794" width="12.22681" height="10.90735" rx="10" fill="rgba(0,0,0,0)" stroke="#000" stroke-width="2" /></g><g data-state="-1"><rect x="2905.922" y="1353.501" width="12.22705" height="10.90735" rx="10" fill="rgba(0,0,0,0)" stroke="#000" stroke-width="2" /></g><g data-state="-1"><rect x="2659.399" y="1354.459" width="12.22705" height="10.90735" rx="10" fill="rgba(0,0,0,0)" stroke="#000" stroke-width="2" /></g><g data-state="-1"><rect x="2659.626" y="1114.916" width="12.22681" height="10.90735" rx="10" fill="rgba(0,0,0,0)" stroke="#000" stroke-width="2" /></g><g data-state="-1"><rect x="304.4952" y="1354.964" width="12.22696" height="10.90735" rx="10" fill="rgba(0,0,0,0)" stroke="#000" stroke-width="2" /></g><g data-state="-1"><rect x="937.33" y="1353.22" width="12.22699" height="10.90735" rx="10" fill="rgba(0,0,0,0)" stroke="#000" stroke-width="2" /></g><g data-state="-1"><rect x="664.224" y="1355.205" width="12.22699" height="10.90735" rx="10" fill="rgba(0,0,0,0)" stroke="#000" stroke-width="2" /></g><g data-state="-1"><rect x="528.895" y="1353.857" width="12.22699" height="10.90723" rx="10" fill="rgba(0,0,0,0)" stroke="#000" stroke-width="2" /></g></svg>