<?xml version="1.0" encoding="utf-8"?><svg width="2000px" height="2000px" xmlns="http://www.w3.org/2000/svg"><g><rect x="586.121" y="362.94" width="44" height="14" fill="rgba(0,0,0,0)" stroke="#000" stroke-width="2" /><text font-size="22" x="577.191" y="332.54" fill="#000">Земля</text></g><g><rect x="686.232" y="362.473" width="44" height="14" fill="rgba(0,0,0,0)" stroke="#000" stroke-width="2" /><text font-size="22" x="660.302" y="332.073" fill="#000">Предохр.</text></g><g><rect x="1023.2" y="302.8048" width="44" height="14" fill="rgba(0,0,0,0)" stroke="#000" stroke-width="2" /><text font-size="22" x="1009.699" y="272.8333" fill="#000">Отмена</text></g><g><rect x="386.871" y="362.695" width="44" height="14" fill="rgba(0,0,0,0)" stroke="#000" stroke-width="2" /><text font-size="22" x="386.441" y="329.795" fill="#000">РКП</text></g><g><rect x="687.01" y="444.84" width="44" height="14" fill="rgba(0,0,0,0)" stroke="#000" stroke-width="2" /><text font-size="22" x="661.08" y="415.44" fill="#000">Иск.разм.</text></g><g><rect x="482.51" y="363.306" width="44" height="14" fill="rgba(0,0,0,0)" stroke="#000" stroke-width="2" /><text font-size="22" x="465.58" y="332.906" fill="#000">Батарея</text></g><g><rect x="1721.495" y="364.406" width="44" height="14" fill="rgba(0,0,0,0)" stroke="#000" stroke-width="2" /><text font-size="22" x="1702.946" y="332.102" fill="#000">Зам.стр.</text></g><g><rect x="1723.05" y="446.345" width="44" height="14" fill="rgba(0,0,0,0)" stroke="#000" stroke-width="2" /><text font-size="22" x="1713.834" y="415.183" fill="#000">Взрез</text></g><g><rect x="1521.217" y="446.906" width="44" height="14" fill="rgba(0,0,0,0)" stroke="#000" stroke-width="2" /><text font-size="22" x="1517.275" y="417.756" fill="#000">НЭО</text></g><g><rect x="1421.772" y="445.134" width="44" height="14" fill="rgba(0,0,0,0)" stroke="#000" stroke-width="2" /><text font-size="22" x="1422.009" y="416.901" fill="#000">НКИ</text></g><g><rect x="1422.05" y="365.562" width="44" height="14" fill="rgba(0,0,0,0)" stroke="#000" stroke-width="2" /><text font-size="22" x="1419.953" y="335.162" fill="#000">День</text></g><g><rect x="1522.55" y="364.929" width="44" height="14" fill="rgba(0,0,0,0)" stroke="#000" stroke-width="2" /><text font-size="22" x="1513.842" y="334.529" fill="#000">Ночь</text></g><g><rect x="1622.717" y="365.24" width="44" height="14" fill="rgba(0,0,0,0)" stroke="#000" stroke-width="2" /><text font-size="22" x="1572.731" y="334.84" fill="#000">Сниж. напр.</text></g><g><rect x="1322.911" y="364.795" width="44" height="14" fill="rgba(0,0,0,0)" stroke="#000" stroke-width="2" /><text font-size="22" x="1330.291" y="338.038" fill="#000">1Ф</text></g><g><rect x="1323.911" y="445.217" width="44" height="14" fill="rgba(0,0,0,0)" stroke="#000" stroke-width="2" /><text font-size="22" x="1326.791" y="416.913" fill="#000">2Ф</text></g><g><rect x="921.05" y="364.54" width="44" height="14" fill="rgba(0,0,0,0)" stroke="#000" stroke-width="2" /><text font-size="22" x="926.954" y="334.14" fill="#000">УМ</text></g><g><rect x="1122.772" y="363.073" width="44" height="14" fill="rgba(0,0,0,0)" stroke="#000" stroke-width="2" /><text font-size="22" x="1131.509" y="332.673" fill="#000">УП</text></g><g><rect x="482.01" y="445.729" width="44" height="14" fill="rgba(0,0,0,0)" stroke="#000" stroke-width="2" /><text font-size="22" x="479.08" y="413.079" fill="#000">ЧЭО</text></g><g><rect x="584.805" y="444.706" width="44" height="14" fill="rgba(0,0,0,0)" stroke="#000" stroke-width="2" /><text font-size="22" x="581.875" y="414.306" fill="#000">ЧКИ</text></g><g><rect x="1621.606" y="447.306" width="44" height="14" fill="rgba(0,0,0,0)" stroke="#000" stroke-width="2" /><text font-size="22" x="1623.398" y="418.156" fill="#000">САУТ</text></g><g><rect x="1222.939" y="446.773" width="44" height="14" fill="rgba(0,0,0,0)" stroke="#000" stroke-width="2" /><text font-size="22" x="1222.009" y="419.706" fill="#000">ОФ</text></g><g><rect x="801.851" y="364.984" width="44" height="14" fill="rgba(0,0,0,0)" stroke="#000" stroke-width="2" /><text font-size="22" x="800.421" y="334.584" fill="#000">УНМ</text></g><g><rect x="801.406" y="448.108" width="44" height="15" fill="rgba(0,0,0,0)" stroke="#000" stroke-width="2" /><text font-size="22" x="800.976" y="412.895" fill="#000">КМГ</text></g><g /><g /><g /><g /><g /><g /><g /><g /><g /><g /><g><rect x="249.3333" y="791.719" width="44" height="14" fill="rgba(0,0,0,0)" stroke="#000" stroke-width="2" /></g><g /><g /><g /><g /><g><rect x="254.1126" y="967.116" width="44" height="14" fill="rgba(0,0,0,0)" stroke="#000" stroke-width="2" /></g><g /><g /><g /><g /><g><rect x="1806.722" y="794.013" width="44" height="14" fill="rgba(0,0,0,0)" stroke="#000" stroke-width="2" /></g><g /><g /><g /><g /><g><rect x="1811.501" y="960.41" width="44" height="14" fill="rgba(0,0,0,0)" stroke="#000" stroke-width="2" /></g><g /><g /><g><rect x="392.288" y="747.147" width="44" height="14" fill="rgba(0,0,0,0)" stroke="#000" stroke-width="2" /><text font-size="22" x="365.858" y="716.747" fill="#000">Неиспр. ЧД</text></g><g><rect x="380.268" y="1031.045" width="44" height="14" fill="rgba(0,0,0,0)" stroke="#000" stroke-width="2" /><text font-size="22" x="353.838" y="1000.645" fill="#000">Неиспр. Ч</text></g><g><rect x="1667.343" y="747.442" width="44" height="14" fill="rgba(0,0,0,0)" stroke="#000" stroke-width="2" /><text font-size="22" x="1640.913" y="717.042" fill="#000">Неиспр. Н</text></g><g><rect x="1653.259" y="993.118" width="44" height="14" fill="rgba(0,0,0,0)" stroke="#000" stroke-width="2" /><text font-size="22" x="1626.829" y="962.718" fill="#000">Неиспр. НД</text></g><g><rect x="1747.689" y="1160.409" width="44" height="14" fill="rgba(0,0,0,0)" stroke="#000" stroke-width="2" /><text font-size="22" x="1726.259" y="1130.009" fill="#000">НУКСПС</text></g><g /><g><rect x="269.1122" y="1136.317" width="44" height="14.35718" fill="rgba(0,0,0,0)" stroke="#000" stroke-width="2" /><text font-size="22" x="248.6465" y="1105.489" fill="#000">ЧУКСПС</text></g><g /><g><rect x="1025.763" y="1209.122" width="44" height="14" fill="rgba(0,0,0,0)" stroke="#000" stroke-width="2" /><text font-size="22" x="1015.333" y="1178.722" fill="#000">Макет</text></g><g><rect x="230.6667" y="1166.053" width="44" height="14" fill="rgba(0,0,0,0)" stroke="#000" stroke-width="2" /></g><g><rect x="310.6625" y="1165.189" width="44" height="14" fill="rgba(0,0,0,0)" stroke="#000" stroke-width="2" /></g><g><rect x="1707.662" y="1186.717" width="44" height="14" fill="rgba(0,0,0,0)" stroke="#000" stroke-width="2" /></g><g><rect x="1787.658" y="1185.853" width="44" height="14" fill="rgba(0,0,0,0)" stroke="#000" stroke-width="2" /></g><g><rect x="341.788" y="625.963" width="44" height="14" fill="rgba(0,0,0,0)" stroke="#000" stroke-width="2" /><text font-size="22" x="342.83" y="599.146" fill="#000">закр</text></g><g><rect x="433.143" y="625.603" width="44" height="14" fill="rgba(0,0,0,0)" stroke="#000" stroke-width="2" /><text font-size="22" x="421.236" y="597.675" fill="#000">неиспр</text></g><g><rect x="1223.851" y="364.217" width="44" height="14" fill="rgba(0,0,0,0)" stroke="#000" stroke-width="2" /><text font-size="22" x="1222.421" y="333.817" fill="#000">УЧМ</text></g></svg>